<svg width="193" height="193" viewBox="0 0 193 193" fill="none" xmlns="http://www.w3.org/2000/svg">
<circle cx="96.9399" cy="96.9399" r="96" fill="url(#paint0_linear_152_13)"/>
<path d="M35.2827 117.634C35.2146 117.468 35.1805 117.281 35.1805 117.074C35.1805 116.852 35.2963 116.603 35.5279 116.327C35.773 116.036 36.134 115.891 36.6107 115.891H41.0851C41.6163 115.891 42.1066 116.078 42.5561 116.451C43.0056 116.825 43.3256 117.295 43.5163 117.862L48.9101 134.298L53.8952 117.862C54.2902 116.548 55.1006 115.891 56.3265 115.891H60.0858C61.3116 115.891 62.122 116.548 62.517 117.862L67.5022 134.298L72.8959 117.862C73.0866 117.295 73.4067 116.825 73.8562 116.451C74.3057 116.078 74.796 115.891 75.3272 115.891H79.8016C80.2647 115.891 80.612 116.036 80.8435 116.327C81.0887 116.603 81.2113 116.852 81.2113 117.074C81.2113 117.281 81.184 117.468 81.1296 117.634L72.0174 143.533C71.5134 144.944 70.5328 145.65 69.0753 145.65H66.1129C64.601 145.65 63.6271 144.944 63.1913 143.533L58.2061 127.554L53.221 143.533C52.7715 144.944 51.7976 145.65 50.2994 145.65H47.3165C45.8727 145.65 44.8988 144.944 44.3949 143.533L35.2827 117.634Z" stroke="#00489E" stroke-width="2"/>
<path d="M85.0114 143.035C82.9139 141.015 81.8651 138.11 81.8651 134.319C81.8651 130.514 82.9207 127.595 85.0319 125.562C87.143 123.514 90.0715 122.49 93.8171 122.49C97.5628 122.49 100.484 123.486 102.582 125.479C104.68 127.457 105.728 130.3 105.728 134.008V135.191C105.728 135.564 105.606 135.875 105.361 136.125C105.129 136.36 104.829 136.477 104.462 136.477H89.0772C89.2134 138.179 89.6901 139.417 90.5073 140.192C91.3382 140.967 92.6594 141.354 94.4709 141.354C96.2825 141.354 97.5219 140.939 98.1893 140.109C98.8567 139.279 99.6808 138.857 100.661 138.843H103.706C104.073 138.843 104.373 138.968 104.605 139.217C104.85 139.452 104.972 139.756 104.972 140.13C104.972 144.1 101.247 146.079 93.7967 146.065C90.0374 146.065 87.109 145.055 85.0114 143.035ZM89.0363 132.099H98.5367C98.4005 128.834 96.8205 127.201 93.7967 127.201C90.7865 127.201 89.1998 128.834 89.0363 132.099Z" stroke="#00489E" stroke-width="2"/>
<path d="M109.488 117.178C109.488 116.804 109.603 116.5 109.835 116.264C110.08 116.015 110.38 115.891 110.734 115.891H115.31C115.665 115.891 115.957 116.015 116.189 116.264C116.434 116.5 116.557 116.804 116.557 117.178V123.549C118.763 122.843 120.731 122.49 122.461 122.49C125.812 122.49 128.475 123.507 130.45 125.541C132.425 127.561 133.412 130.48 133.412 134.298C133.412 142.143 129.088 146.065 120.439 146.065C118.464 146.065 116.414 145.844 114.289 145.401C112.178 144.944 110.577 144.391 109.488 143.741V117.178ZM116.557 128.342V140.586C117.728 140.904 119.22 141.064 121.031 141.064C122.843 141.064 124.143 140.531 124.933 139.466C125.737 138.4 126.139 136.678 126.139 134.298C126.139 131.919 125.744 130.196 124.954 129.131C124.177 128.052 122.856 127.512 120.99 127.512C119.792 127.512 118.314 127.789 116.557 128.342Z" stroke="#00489E" stroke-width="2"/>
<path d="M135.925 129.193C135.925 124.725 139.473 122.49 146.57 122.49C154.034 122.49 157.766 124.476 157.766 128.446C157.766 128.806 157.65 129.11 157.418 129.359C157.187 129.594 156.887 129.712 156.519 129.712H153.475C152.495 129.712 151.671 129.297 151.003 128.467C150.336 127.623 149.021 127.201 147.06 127.201C144.363 127.201 143.015 127.865 143.015 129.193C143.015 129.816 143.539 130.335 144.588 130.75C145.65 131.165 146.937 131.531 148.449 131.85C149.975 132.154 151.493 132.548 153.005 133.032C154.517 133.517 155.798 134.291 156.846 135.357C157.909 136.408 158.44 137.743 158.44 139.362C158.44 143.831 154.694 146.065 147.203 146.065C139.712 146.065 135.966 144.087 135.966 140.13C135.966 139.756 136.082 139.452 136.313 139.217C136.558 138.968 136.865 138.843 137.233 138.843H140.277C141.258 138.843 142.082 139.265 142.749 140.109C143.416 140.939 144.731 141.354 146.692 141.354C149.811 141.354 151.371 140.69 151.371 139.362C151.371 138.739 150.84 138.221 149.777 137.805C148.728 137.39 147.441 137.024 145.916 136.706C144.39 136.374 142.872 135.972 141.36 135.502C139.861 135.018 138.581 134.243 137.519 133.178C136.456 132.112 135.925 130.784 135.925 129.193Z" stroke="#00489E" stroke-width="2"/>
<path d="M57.0878 101.968H44.0702V82.9279H57.9061C57.9061 89.2747 64.1546 90.3325 67.2788 90.4836C69.8823 90.4836 73.6016 89.8791 73.6016 86.7057C73.6016 80.8123 45.0372 83.3057 45.0372 64.0386C45.0372 52.8561 55.4513 47.7938 62.7412 47.7938C68.9897 47.7938 75.3125 49.8338 78.288 55.5006L79.0319 49.1538H91.8263V68.1187H78.3624C78.3624 62.5274 74.048 59.354 68.8409 59.354C66.6837 59.354 63.7082 60.714 63.7082 63.3585C63.7082 71.1409 93.1653 69.3276 93.1653 87.0835C93.1653 98.8704 82.3049 103.102 73.4529 103.102C65.9398 103.102 60.7328 99.5505 57.9061 96.1504L57.0878 101.968Z" fill="url(#paint1_linear_152_13)"/>
<path d="M120.313 49.1538V58.9007H116.297V71.2165L130.132 58.9007H124.777V49.1538H149.547V58.9007H145.233L134.447 68.3453L149.473 92.1458H153.787V101.968H124.777V92.1458H129.835L121.801 79.3011L116.297 84.0612V92.1458H120.313V101.968H96.8817V92.1458H100.899V58.9007H96.8817V49.1538H120.313Z" fill="url(#paint2_linear_152_13)"/>
<defs>
<linearGradient id="paint0_linear_152_13" x1="192.94" y1="0.939936" x2="0.939924" y2="192.94" gradientUnits="userSpaceOnUse">
<stop offset="0.141339" stop-color="#FF9933"/>
<stop offset="0.505208" stop-color="white"/>
<stop offset="0.864994" stop-color="#138808"/>
</linearGradient>
<linearGradient id="paint1_linear_152_13" x1="86.9587" y1="25.2305" x2="129.283" y2="113.263" gradientUnits="userSpaceOnUse">
<stop offset="0.0319469" stop-color="#020B1D"/>
<stop offset="0.510417" stop-color="#4786FF"/>
<stop offset="1"/>
</linearGradient>
<linearGradient id="paint2_linear_152_13" x1="86.9587" y1="25.2305" x2="129.283" y2="113.263" gradientUnits="userSpaceOnUse">
<stop offset="0.0319469" stop-color="#020B1D"/>
<stop offset="0.510417" stop-color="#4786FF"/>
<stop offset="1"/>
</linearGradient>
</defs>
</svg>
